<svg id="visual" viewBox="0 0 450 900" width="450" height="900" xmlns="http://www.w3.org/2000/svg" xmlns:xlink="http://www.w3.org/1999/xlink" version="1.1"><rect x="0" y="0" width="450" height="900" fill="#ffffff"></rect><defs><linearGradient id="grad1_0" x1="0%" y1="0%" x2="100%" y2="100%"><stop offset="30%" stop-color="#ffffff" stop-opacity="1"></stop><stop offset="70%" stop-color="#ffffff" stop-opacity="1"></stop></linearGradient></defs><defs><linearGradient id="grad2_0" x1="0%" y1="0%" x2="100%" y2="100%"><stop offset="30%" stop-color="#ffffff" stop-opacity="1"></stop><stop offset="70%" stop-color="#ffffff" stop-opacity="1"></stop></linearGradient></defs><g transform="translate(450, 0)"><path d="M0 270C-38 267.4 -76 264.8 -101.8 245.8C-127.6 226.7 -141.2 191.2 -166.9 166.9C-192.5 142.5 -230.3 129.3 -249.4 103.3C-268.6 77.4 -269.3 38.7 -270 0L0 0Z" fill="#Ff3e3e"></path></g><g transform="translate(0, 900)"><path d="M0 -270C35.8 -266.9 71.6 -263.9 103.3 -249.4C135 -235 162.7 -209.2 181 -181C199.4 -152.9 208.4 -122.4 221.7 -91.8C235 -61.3 252.5 -30.6 270 0L0 0Z" fill="#Ff3e3e"></path></g></svg>