<svg id="visual" viewBox="0 0 900 600" width="900" height="600" xmlns="http://www.w3.org/2000/svg" xmlns:xlink="http://www.w3.org/1999/xlink" version="1.1"><rect x="0" y="0" width="900" height="600" fill="#fff"></rect><defs><linearGradient id="grad1_0" x1="33.3%" y1="0%" x2="100%" y2="100%"><stop offset="20%" stop-color="#ffffff" stop-opacity="1"></stop><stop offset="80%" stop-color="#ffffff" stop-opacity="1"></stop></linearGradient></defs><defs><linearGradient id="grad2_0" x1="0%" y1="0%" x2="66.7%" y2="100%"><stop offset="20%" stop-color="#ffffff" stop-opacity="1"></stop><stop offset="80%" stop-color="#ffffff" stop-opacity="1"></stop></linearGradient></defs><g transform="translate(900, 0)"><path d="M0 243.4C-34.4 242.6 -68.8 241.8 -93.1 224.8C-117.5 207.9 -131.8 174.6 -149.9 149.9C-168 125.2 -189.8 108.9 -206 85.3C-222.2 61.8 -232.8 30.9 -243.4 0L0 0Z" fill="#ff3e3e"></path></g><g transform="translate(0, 600)"><path d="M0 -243.4C29.5 -227.1 59.1 -210.8 79.6 -192.2C100.1 -173.5 111.7 -152.5 137.9 -137.9C164.1 -123.3 204.8 -115 224.8 -93.1C244.9 -71.2 244.1 -35.6 243.4 0L0 0Z" fill="#ff3e3e"></path></g></svg>