<svg id="visual" viewBox="0 0 960 540" width="960" height="540" xmlns="http://www.w3.org/2000/svg" xmlns:xlink="http://www.w3.org/1999/xlink" version="1.1"><rect x="0" y="0" width="960" height="540" fill="#ffffff"></rect><path d="M0 138L22.8 145.8C45.7 153.7 91.3 169.3 137 177.8C182.7 186.3 228.3 187.7 274 183.5C319.7 179.3 365.3 169.7 411.2 169.8C457 170 503 180 548.8 182.2C594.7 184.3 640.3 178.7 686 179.5C731.7 180.3 777.3 187.7 823 191.2C868.7 194.7 914.3 194.3 937.2 194.2L960 194L960 0L937.2 0C914.3 0 868.7 0 823 0C777.3 0 731.7 0 686 0C640.3 0 594.7 0 548.8 0C503 0 457 0 411.2 0C365.3 0 319.7 0 274 0C228.3 0 182.7 0 137 0C91.3 0 45.7 0 22.8 0L0 0Z" fill="#ff3e3e"></path><path d="M0 182L22.8 177C45.7 172 91.3 162 137 151.7C182.7 141.3 228.3 130.7 274 128.7C319.7 126.7 365.3 133.3 411.2 132.8C457 132.3 503 124.7 548.8 121.3C594.7 118 640.3 119 686 126C731.7 133 777.3 146 823 153.7C868.7 161.3 914.3 163.7 937.2 164.8L960 166L960 0L937.2 0C914.3 0 868.7 0 823 0C777.3 0 731.7 0 686 0C640.3 0 594.7 0 548.8 0C503 0 457 0 411.2 0C365.3 0 319.7 0 274 0C228.3 0 182.7 0 137 0C91.3 0 45.7 0 22.8 0L0 0Z" fill="#cb2a6e"></path><path d="M0 85L22.8 86.2C45.7 87.3 91.3 89.7 137 94.2C182.7 98.7 228.3 105.3 274 108C319.7 110.7 365.3 109.3 411.2 105.5C457 101.7 503 95.3 548.8 97.2C594.7 99 640.3 109 686 114.7C731.7 120.3 777.3 121.7 823 117.8C868.7 114 914.3 105 937.2 100.5L960 96L960 0L937.2 0C914.3 0 868.7 0 823 0C777.3 0 731.7 0 686 0C640.3 0 594.7 0 548.8 0C503 0 457 0 411.2 0C365.3 0 319.7 0 274 0C228.3 0 182.7 0 137 0C91.3 0 45.7 0 22.8 0L0 0Z" fill="#7e3879"></path><path d="M0 84L22.8 87.2C45.7 90.3 91.3 96.7 137 99.7C182.7 102.7 228.3 102.3 274 98.8C319.7 95.3 365.3 88.7 411.2 81.8C457 75 503 68 548.8 63.3C594.7 58.7 640.3 56.3 686 56.7C731.7 57 777.3 60 823 63.3C868.7 66.7 914.3 70.3 937.2 72.2L960 74L960 0L937.2 0C914.3 0 868.7 0 823 0C777.3 0 731.7 0 686 0C640.3 0 594.7 0 548.8 0C503 0 457 0 411.2 0C365.3 0 319.7 0 274 0C228.3 0 182.7 0 137 0C91.3 0 45.7 0 22.8 0L0 0Z" fill="#38355d"></path><path d="M0 26L22.8 28C45.7 30 91.3 34 137 37.5C182.7 41 228.3 44 274 44.7C319.7 45.3 365.3 43.7 411.2 44.8C457 46 503 50 548.8 49.5C594.7 49 640.3 44 686 41.7C731.7 39.3 777.3 39.7 823 38.2C868.7 36.7 914.3 33.3 937.2 31.7L960 30L960 0L937.2 0C914.3 0 868.7 0 823 0C777.3 0 731.7 0 686 0C640.3 0 594.7 0 548.8 0C503 0 457 0 411.2 0C365.3 0 319.7 0 274 0C228.3 0 182.7 0 137 0C91.3 0 45.7 0 22.8 0L0 0Z" fill="#1c232c"></path></svg>