<svg xmlns="http://www.w3.org/2000/svg" version="1.1" xmlns:xlink="http://www.w3.org/1999/xlink" xmlns:svgjs="http://svgjs.com/svgjs" width="1440" height="560" preserveAspectRatio="none" viewBox="0 0 1440 560"><g mask="url(&quot;#SvgjsMask1010&quot;)" fill="none"><rect width="1440" height="560" x="0" y="0" fill="rgba(255, 255, 255, 1)"></rect><path d="M1594.14 130.15C1490.01 131.55 1397.94 253.81 1196.2 253.35 994.47 252.89 916.13 7.66 798.27-3.13" stroke="rgba(255, 62, 62, 1)" stroke-width="2"></path><path d="M1710.07 405.83C1599.81 405.61 1492.34 335.83 1274.62 335.83 1056.89 335.83 1072.64 411.68 839.17 405.83 605.7 399.98 549.81 28.03 403.72-2.1" stroke="rgba(255, 62, 62, 1)" stroke-width="2"></path><path d="M1456.78 397.76C1311.78 395.53 1135.23 229.27 905.07 218.56 674.92 207.85 717.35 6.01 629.22-7.85" stroke="rgba(255, 62, 62, 1)" stroke-width="2"></path><path d="M1564.99 350.08C1402.82 345.35 1208.8 111.31 964.63 103.68 720.46 96.05 746.47-26.29 664.45-29.22" stroke="rgba(255, 62, 62, 1)" stroke-width="2"></path><path d="M1669.8 132.52C1558.48 145.87 1491.83 396.43 1306.66 395.72 1121.5 395.01 1074.73 25.38 943.53-12.82" stroke="rgba(255, 62, 62, 1)" stroke-width="2"></path></g><defs><mask id="SvgjsMask1010"><rect width="1440" height="560" fill="#ffffff"></rect></mask></defs></svg>